<?xml version="1.0" encoding="UTF-8"?>
<svg xmlns="http://www.w3.org/2000/svg" xmlns:xlink="http://www.w3.org/1999/xlink" width="300px" height="200px" viewBox="0 0 300 200" version="1.1">
  <!-- Generator: Sketch 54.1 (76490) - https://sketchapp.com -->
  <title>Artboard Copy 3</title>
  <desc>Created with Sketch.</desc>
  <g id="Artboard-Copy-3" stroke="none" stroke-width="1" fill="none" fill-rule="evenodd">
    <rect fill="#FFFFFF" x="0" y="0" width="300" height="200"></rect>
    <rect id="Rectangle" fill="#FFFFFF" x="0" y="0" width="300" height="200"></rect>
    <g id="icon4" transform="translate(51.000000, 92.000000)">
      <polygon id="Fill-1" fill="#FFFFFF" points="0 28.4409478 0 72.5774461 94.9895483 81 199 18.3194783 199 1.84861218 147.22878 0"></polygon>
      <polygon id="Stroke-2" stroke="#231F20" points="0 72.5761808 94.9895483 81 199 18.3205712 199 1.84999215 147.230194 0 0 28.4418641"></polygon>
      <polygon id="Fill-4" fill="#FFFFFF" points="95 81 95 38.1532987 0 30"></polygon>
      <polyline id="Stroke-5" stroke="#231F20" points="0 30 95 38.1532987 95 81"></polyline>
      <path d="M94,37 L199,2 L94,37 Z" id="Fill-7" fill="#FFFFFF"></path>
      <g id="Group-16" transform="translate(6.000000, 2.000000)">
        <path d="M88.7718412,35.1461127 L192.954209,0.182549231" id="Stroke-8" stroke="#231F20"></path>
        <path d="M23.4748105,50.4998069 C23.4748105,56.7614723 18.4017939,61.8382685 12.1447903,61.8382685 C5.88778662,61.8382685 0.814770077,56.7614723 0.814770077,50.4998069 C0.814770077,44.2381415 5.88778662,39.1613454 12.1447903,39.1613454 C18.4017939,39.1613454 23.4748105,44.2381415 23.4748105,50.4998069" id="Fill-10" fill="#000000"></path>
        <path d="M51.5371461,53.3468946 C51.5371461,59.60856 46.4641295,64.6853562 40.2071259,64.6853562 C33.9501222,64.6853562 28.8771057,59.60856 28.8771057,53.3468946 C28.8771057,47.0852292 33.9501222,42.0084331 40.2071259,42.0084331 C46.4641295,42.0084331 51.5371461,47.0852292 51.5371461,53.3468946" id="Fill-12" fill="#000000"></path>
        <path d="M79.5979238,55.5904927 C79.5979238,61.8521581 74.5249073,66.9289542 68.2679036,66.9289542 C62.0109,66.9289542 56.9378835,61.8521581 56.9378835,55.5904927 C56.9378835,49.3288273 62.0109,44.2520312 68.2679036,44.2520312 C74.5249073,44.2520312 79.5979238,49.3288273 79.5979238,55.5904927" id="Fill-14" fill="#000000"></path>
      </g>
    </g>
  </g>
</svg>
