<?xml version="1.0" encoding="UTF-8"?>
<!-- Generator: Adobe Illustrator 27.2.0, SVG Export Plug-In . SVG Version: 6.00 Build 0)  -->
<svg xmlns="http://www.w3.org/2000/svg" xmlns:xlink="http://www.w3.org/1999/xlink" version="1.1" id="Layer_1" x="0px" y="0px" viewBox="0 0 300 200" style="enable-background:new 0 0 300 200;" xml:space="preserve">
<style type="text/css">
	.st0{fill-rule:evenodd;clip-rule:evenodd;fill:#FFFFFF;}
	.st1{fill:none;stroke:#221F1F;}
	.st2{fill:#FFFFFF;}
</style>
<g id="Artboard-Copy-5">
	<rect y="0" class="st0" width="300" height="200"></rect>
	<g id="Group-2" transform="translate(65.000000, 56.000000)">
		<polygon id="Fill-219" class="st0" points="0,100.3 0,109 80.3,116 171,75.5 171,68 149.6,44.4 149.6,2.3 138.2,0 27.2,22.9     25.1,71.9   "></polygon>
		<polygon id="Stroke-221" class="st1" points="0,100.3 0,109 80.3,116 171,75.5 171,68 149.6,44.4 149.6,2.3 138.2,0 27.2,22.9     25.1,71.9   "></polygon>
		<polyline id="Stroke-223" class="st1" points="149,2 47.4,25 27,22.5   "></polyline>
		<polyline id="Stroke-225" class="st1" points="171,68 80,105.9 80,116   "></polyline>
		<polyline id="Stroke-227" class="st1" points="47,25 48.6,74.6 79,106   "></polyline>
	</g>
</g>
<g>
	<line class="st2" x1="113.6" y1="130.6" x2="214.6" y2="100.4"></line>
	<rect x="111.4" y="115" transform="matrix(0.9583 -0.2859 0.2859 0.9583 -26.1656 51.7463)" width="105.4" height="1"></rect>
</g>
</svg>
