<?xml version="1.0" encoding="UTF-8"?>
<svg xmlns="http://www.w3.org/2000/svg" id="Layer_1" data-name="Layer 1" viewBox="0 0 300 200">
  <defs>
    <style>
      .cls-1, .cls-2 {
        fill: #fff;
      }

      .cls-3 {
        fill: #221f1f;
      }

      .cls-2, .cls-4 {
        fill-rule: evenodd;
      }

      .cls-5 {
        fill: none;
        stroke: #221f1f;
      }
    </style>
  </defs>
  <g id="Artboard-Copy-4">
    <rect class="cls-1" width="300" height="200"></rect>
    <g id="Group">
      <g id="Group-196">
        <path id="Fill-194" class="cls-2" d="m82.47,91.95l160.52-19.51"></path>
        <path id="Stroke-195" class="cls-5" d="m82.47,91.95l160.52-19.51"></path>
      </g>
      <g id="Group-199">
        <path id="Fill-197" class="cls-2" d="m96.2,74.7l152.74-11.68"></path>
        <path id="Stroke-198" class="cls-5" d="m96.2,74.7l152.74-11.68"></path>
      </g>
      <g id="Group-202">
        <path id="Fill-200" class="cls-2" d="m96.2,68.39l152.74-8.14"></path>
        <path id="Stroke-201" class="cls-5" d="m96.2,68.39l152.74-8.14"></path>
      </g>
      <g id="Group-205">
        <polyline id="Fill-203" class="cls-2" points="57.38 60.45 229.72 56.28 246.54 58.18"></polyline>
        <polyline id="Stroke-204" class="cls-5" points="57.38 60.45 229.72 56.28 246.54 58.18"></polyline>
      </g>
      <path id="Fill-206" class="cls-4" d="m82,70.5c0-.83.67-1.5,1.5-1.5s1.5.67,1.5,1.5-.67,1.5-1.5,1.5-1.5-.67-1.5-1.5"></path>
      <path id="Fill-207" class="cls-4" d="m71,69.5c0-.83.67-1.5,1.5-1.5s1.5.67,1.5,1.5-.67,1.5-1.5,1.5-1.5-.67-1.5-1.5"></path>
      <path id="Fill-208" class="cls-4" d="m76,76.5c0-.83.67-1.5,1.5-1.5s1.5.67,1.5,1.5-.67,1.5-1.5,1.5-1.5-.67-1.5-1.5"></path>
      <path id="Fill-209" class="cls-4" d="m65,75.5c0-.83.67-1.5,1.5-1.5s1.5.67,1.5,1.5-.67,1.5-1.5,1.5-1.5-.67-1.5-1.5"></path>
      <path id="Fill-210" class="cls-4" d="m61,67.5c0-.83.67-1.5,1.5-1.5s1.5.67,1.5,1.5-.67,1.5-1.5,1.5-1.5-.67-1.5-1.5"></path>
      <g id="Group-217">
        <polyline id="Fill-215" class="cls-2" points="90.24 64.42 246.34 58.74 246.34 60.97 248.93 61.28 248.93 64.07 242.25 72.91 242.25 91.52 248.93 102.07 248.93 112.93 95.43 172.79"></polyline>
        <polyline id="Stroke-216" class="cls-5" points="90.24 64.42 246.34 58.74 246.34 60.97 248.93 61.28 248.93 64.07 242.25 72.91 242.25 91.52 248.93 102.07 248.93 112.93 95.43 172.79"></polyline>
      </g>
      <polygon id="Fill-229" class="cls-2" points="52 68.26 52 71.27 66.35 91.49 66.35 128.82 52 146.45 52 167.98 96 173 96 151.22 82.38 130.06 82.38 92.73 96 75 96 69.4 90.72 68.78 90.72 64.32 57.59 61 57.59 65.67 52 65.1 52 68.26"></polygon>
      <polygon id="Stroke-231" class="cls-5" points="52 68.26 52 71.27 66.35 91.49 66.35 128.82 52 146.45 52 167.98 96 173 96 151.22 82.38 130.06 82.38 92.73 96 75 96 69.4 90.72 68.78 90.72 64.32 57.59 61 57.59 65.67 52 65.1 52 68.26"></polygon>
      <g id="Group-264">
        <path id="Fill-261" class="cls-2" d="m96.2,151.26l152.74-49.07"></path>
        <path id="Stroke-263" class="cls-5" d="m96.2,151.26l152.74-49.07"></path>
      </g>
      <path id="Fill-265" class="cls-4" d="m63,161.5c0,.83-.67,1.5-1.5,1.5s-1.5-.67-1.5-1.5.67-1.5,1.5-1.5,1.5.67,1.5,1.5"></path>
      <path id="Fill-267" class="cls-4" d="m74,163.5c0,.83-.67,1.5-1.5,1.5s-1.5-.67-1.5-1.5.67-1.5,1.5-1.5,1.5.67,1.5,1.5"></path>
      <path id="Fill-269" class="cls-4" d="m69,155.5c0,.83-.67,1.5-1.5,1.5s-1.5-.67-1.5-1.5.67-1.5,1.5-1.5,1.5.67,1.5,1.5"></path>
      <path id="Fill-271" class="cls-4" d="m79,156.5c0,.83-.67,1.5-1.5,1.5s-1.5-.67-1.5-1.5.67-1.5,1.5-1.5,1.5.67,1.5,1.5"></path>
      <path id="Fill-273" class="cls-4" d="m84,163.5c0,.83-.67,1.5-1.5,1.5s-1.5-.67-1.5-1.5.67-1.5,1.5-1.5,1.5.67,1.5,1.5"></path>
    </g>
  </g>
  <polygon class="cls-3" points="82.5 130.55 82.27 129.58 241.75 91.13 241.75 73.47 90.3 91.5 90.19 90.51 242.75 72.35 242.75 91.92 242.37 92.01 82.5 130.55"></polygon>
</svg>
