<?xml version="1.0" encoding="UTF-8"?>
<svg xmlns="http://www.w3.org/2000/svg" id="Layer_1" data-name="Layer 1" viewBox="0 0 300 200">
  <defs>
    <style>
      .cls-1 {
        fill: #fff;
      }

      .cls-2 {
        opacity: .62;
      }
    </style>
  </defs>
  <rect id="Rectangle" class="cls-1" width="300" height="200"></rect>
  <g>
    <g class="cls-2">
      <path d="m183.81,179.41l-.17-.09-24.52-12.69-.07-.12-56.18-95.44-10.32-5.02-28.13,6.6-9.91-5.1v-33.42l59.68-13.91.16.07,63.14,29.7v11.76l13.49,6.03v8.9l10.62,4.88v12.06l10.91,5.17v12.32l10.62,4.31v12.64l12.05,5.45v11.23l10.33,6.03v12.44l-.37.1-61.32,16.12Zm-23.98-13.54l24.1,12.47,60.57-15.93v-11.09l-10.33-6.03v-11.16l-12.05-5.45v-12.61l-10.62-4.31v-12.36l-10.91-5.17v-12.05l-10.62-4.88v-8.89l-13.49-6.03v-11.77l-62.41-29.35-58.57,13.65v32.02l9.04,4.66,28.12-6.6,10.91,5.31.08.13,56.18,95.45Z"></path>
    </g>
    <polygon points="184.42 179.73 159.11 166.63 159.04 166.51 102.86 71.06 54.78 47.74 55.22 46.84 103.57 70.29 103.65 70.42 159.83 165.87 183.32 178.03 182.67 167.27 171.89 161.24 171.89 150.04 161.12 143.79 161.12 132.18 150.58 126.59 150.58 114.97 139.6 109.37 139.6 97.53 128.84 91.93 128.84 83.97 115.27 76.86 115.27 65.46 54.77 34.96 55.23 34.07 116.27 64.85 116.27 76.26 129.84 83.36 129.84 91.33 140.6 96.92 140.6 108.76 151.58 114.36 151.58 125.98 162.12 131.58 162.12 143.22 172.89 149.46 172.89 160.65 183.63 166.67 184.42 179.73"></polygon>
    <rect x="63.04" y="51.43" width="1" height="20.2"></rect>
    <rect x="114.89" y="57.23" width="62.98" height="1" transform="translate(-9.49 36.15) rotate(-13.64)"></rect>
    <rect x="114.93" y="68.82" width="62.9" height="1" transform="translate(-12.04 35.62) rotate(-13.33)"></rect>
    <polygon points="129.45 92.12 129.22 91.14 189.97 76.6 189.97 68.74 129.46 84.15 129.21 83.18 190.97 67.45 190.97 77.39 129.45 92.12"></polygon>
    <rect x="182.14" y="158.5" width="63.87" height="1" transform="translate(-32.94 58.54) rotate(-14.47)"></rect>
    <rect x="171.38" y="152.48" width="64.29" height="1" transform="translate(-31.59 55.27) rotate(-14.36)"></rect>
    <rect x="171.38" y="141.28" width="64.29" height="1" transform="translate(-28.81 54.92) rotate(-14.36)"></rect>
    <rect x="160.7" y="135.44" width="62.84" height="1" transform="translate(-27.03 50.14) rotate(-13.9)"></rect>
    <rect x="160.57" y="123.31" width="63.09" height="1" transform="translate(-25.28 53.27) rotate(-14.82)"></rect>
    <path d="m151.2,126.77l-.24-.97c6.06-1.52,59.31-14.87,61.04-14.87v1c-1.62.07-44.44,10.73-60.8,14.84Z"></path>
    <path d="m151.21,115.14l-.26-.96c22.41-6.03,60.15-16.08,61.26-15.54l-.21.45-.09.49s-.02,0-.03,0c-2.07,0-37.35,9.29-60.67,15.57Z"></path>
    <rect x="139.17" y="101" width="62.84" height="1" transform="translate(-19.44 44.14) rotate(-13.95)"></rect>
    <rect x="139.15" y="89.05" width="62.89" height="1" transform="translate(-16.7 44.36) rotate(-14.13)"></rect>
  </g>
</svg>
