<?xml version="1.0" encoding="UTF-8"?>
<svg xmlns="http://www.w3.org/2000/svg" id="Layer_1" data-name="Layer 1" viewBox="0 0 300 200">
  <defs>
    <style>
      .cls-1 {
        fill: #fff;
      }
    </style>
  </defs>
  <rect id="Rectangle" class="cls-1" width="300" height="200"></rect>
  <g>
    <path d="m167.6,27.8c-.06,0-.13,0-.19-.04-.06-.02-.11-.06-.16-.1-.09-.1-.15-.23-.15-.36,0-.06.02-.13.04-.19.03-.06.06-.12.11-.16.05-.05.1-.08.16-.11.19-.08.41-.03.55.11.04.04.08.1.1.16.03.06.04.13.04.19,0,.13-.05.26-.14.36-.1.09-.22.14-.36.14Z"></path>
    <path d="m166.65,28.08c-.07,0-.14-.02-.2-.04-.06-.03-.11-.06-.16-.11-.05-.05-.08-.1-.11-.16-.02-.06-.04-.13-.04-.19,0-.07.02-.13.04-.19.03-.07.06-.12.11-.17.19-.18.52-.18.71,0,.09.09.14.22.14.36,0,.06,0,.13-.03.19-.03.06-.07.11-.11.16-.1.09-.22.15-.35.15Z"></path>
    <path d="m108.95,155.79h-2.95c-.28,0-.5-.22-.5-.5s.22-.5.5-.5h2.95c.28,0,.5.22.5.5s-.22.5-.5.5Z"></path>
    <path d="m108.95,151.81h-3.22c-.28,0-.5-.22-.5-.5s.22-.5.5-.5h3.22c.28,0,.5.22.5.5s-.22.5-.5.5Z"></path>
    <path d="m106.08,144h-16.38c-.28,0-.5-.22-.5-.5s.22-.5.5-.5h16.38c.28,0,.5.22.5.5s-.22.5-.5.5Z"></path>
    <path d="m107.99,119.61h-18.29c-.28,0-.5-.22-.5-.5s.22-.5.5-.5h18.29c.28,0,.5.22.5.5s-.22.5-.5.5Z"></path>
    <path d="m106.08,116.87h-16.38c-.28,0-.5-.22-.5-.5s.22-.5.5-.5h16.38c.28,0,.5.22.5.5s-.22.5-.5.5Z"></path>
    <path d="m142.32,177.1h-32.06c-.28,0-.5-.22-.5-.5s.22-.5.5-.5h31.4l-3.72-12.58c-.08-.26.07-.54.34-.62.27-.08.54.07.62.34l3.91,13.22c.04.15.02.31-.08.44-.09.13-.24.2-.4.2Z"></path>
    <path d="m144.38,150.99h-32.27c-.28,0-.5-.22-.5-.5s.22-.5.5-.5h32.27c.28,0,.5.22.5.5s-.22.5-.5.5Z"></path>
    <path d="m146.57,154.69h-32c-.28,0-.5-.22-.5-.5s.22-.5.5-.5h32c.28,0,.5.22.5.5s-.22.5-.5.5Z"></path>
    <path d="m146.16,153.8c-.17,0-.33-.08-.42-.23l-1.78-2.81c-.05-.08-.08-.17-.08-.27,0-.17.08-.33.23-.42.23-.15.54-.08.69.15l1.78,2.81c.05.08.08.17.08.27,0,.17-.08.33-.23.42-.08.05-.18.08-.27.08Z"></path>
    <path d="m146.57,154.69c-.18,0-.36-.1-.45-.28-.05-.11-.06-.23-.04-.34l-2.13-3.31c-.15-.23-.08-.54.15-.69.23-.15.54-.08.69.15l2.33,3.63c.08.12.1.27.06.4s-.13.25-.26.31l-.14.07c-.07.04-.15.05-.22.05Z"></path>
    <path d="m109.23,170.93c-.28,0-.5-.22-.5-.5v-.21c0-.28.22-.5.5-.5s.5.22.5.5v.21c0,.28-.22.5-.5.5Z"></path>
    <path d="m109.3,171.2c-.21,0-.4-.13-.47-.34l-.07-.21c-.09-.26.06-.54.32-.63.26-.09.54.05.63.32l.07.21c.09.26-.06.54-.32.63-.05.02-.1.03-.16.03Z"></path>
    <path d="m109.37,171.48c-.18,0-.36-.1-.45-.28l-.07-.14c-.12-.25-.02-.55.22-.67.25-.12.55-.02.67.22l.07.14c.12.25.02.55-.22.67-.07.04-.15.05-.22.05Z"></path>
    <path d="m109.43,171.75c-.18,0-.36-.1-.45-.28l-.07-.14c-.12-.25-.02-.55.22-.67.25-.12.55-.02.67.22l.07.14c.12.25.02.55-.22.67-.07.04-.15.05-.22.05Z"></path>
    <path d="m109.43,172.03c-.28,0-.5-.22-.5-.5v-.14c0-.28.22-.5.5-.5s.5.22.5.5v.14c0,.28-.22.5-.5.5Z"></path>
    <path d="m109.5,172.3c-.28,0-.5-.22-.5-.5v-.14c0-.28.22-.5.5-.5s.5.22.5.5v.14c0,.28-.22.5-.5.5Z"></path>
    <path d="m109.57,172.57c-.18,0-.36-.1-.45-.28l-.07-.14c-.12-.25-.02-.55.22-.67.25-.12.55-.03.67.22l.07.14c.12.25.02.55-.22.67-.07.04-.15.05-.22.05Z"></path>
    <path d="m109.64,172.85c-.18,0-.36-.1-.45-.28l-.07-.14c-.12-.25-.02-.55.23-.67.25-.12.55-.02.67.23l.07.14c.12.25.02.55-.23.67-.07.04-.15.05-.22.05Z"></path>
    <path d="m109.64,173.12c-.28,0-.5-.22-.5-.5v-.14c0-.28.22-.5.5-.5s.5.22.5.5v.14c0,.28-.22.5-.5.5Z"></path>
    <path d="m109.71,173.47c-.28,0-.5-.22-.5-.5v-.21c0-.28.22-.5.5-.5s.5.22.5.5v.21c0,.28-.22.5-.5.5Z"></path>
    <path d="m109.78,173.74c-.28,0-.5-.22-.5-.5v-.21c0-.28.22-.5.5-.5s.5.22.5.5v.21c0,.28-.22.5-.5.5Z"></path>
    <path d="m109.84,174.01c-.21,0-.4-.13-.47-.34l-.07-.21c-.09-.26.05-.54.32-.63.26-.09.54.05.63.32l.07.21c.09.26-.05.54-.32.63-.05.02-.11.03-.16.03Z"></path>
    <path d="m109.91,174.29c-.21,0-.4-.13-.47-.34l-.07-.21c-.09-.26.05-.54.32-.63.26-.09.54.05.63.32l.07.21c.09.26-.05.54-.32.63-.05.02-.11.03-.16.03Z"></path>
    <path d="m109.91,174.56c-.28,0-.5-.22-.5-.5v-.21c0-.28.22-.5.5-.5s.5.22.5.5v.21c0,.28-.22.5-.5.5Z"></path>
    <path d="m109.98,174.84c-.28,0-.5-.22-.5-.5v-.21c0-.28.22-.5.5-.5s.5.22.5.5v.21c0,.28-.22.5-.5.5Z"></path>
    <path d="m110.05,175.11c-.21,0-.4-.13-.47-.34l-.07-.21c-.09-.26.06-.54.32-.63.26-.09.54.05.63.32l.07.21c.09.26-.06.54-.32.63-.05.02-.1.03-.16.03Z"></path>
    <path d="m110.12,175.38c-.21,0-.4-.13-.47-.34l-.07-.21c-.09-.26.06-.54.32-.63.26-.09.54.05.63.32l.07.21c.09.26-.06.54-.32.63-.05.02-.1.03-.16.03Z"></path>
    <path d="m110.19,175.66c-.21,0-.4-.13-.47-.34l-.07-.21c-.09-.26.05-.54.31-.63.26-.09.55.05.63.31l.07.21c.09.26-.05.54-.31.63-.05.02-.11.03-.16.03Z"></path>
    <path d="m110.19,175.93c-.28,0-.5-.22-.5-.5v-.21c0-.28.22-.5.5-.5s.5.22.5.5v.21c0,.28-.22.5-.5.5Z"></path>
    <path d="m110.26,176.21c-.28,0-.5-.22-.5-.5v-.21c0-.28.22-.5.5-.5s.5.22.5.5v.21c0,.28-.22.5-.5.5Z"></path>
    <path d="m110.32,176.48c-.21,0-.4-.13-.47-.34l-.07-.21c-.09-.26.05-.54.32-.63.26-.09.54.06.63.32l.07.21c.09.26-.05.54-.32.63-.05.02-.11.03-.16.03Z"></path>
    <path d="m114.71,154.97c-.18,0-.36-.1-.45-.28l-.14-.27c-.12-.25-.02-.55.22-.67.25-.12.55-.02.67.22l.14.27c.12.25.02.55-.22.67-.07.04-.15.05-.22.05Z"></path>
    <path d="m109.71,155.72h-.75c-.28,0-.5-.22-.5-.5s.22-.5.5-.5h.75c.28,0,.5.22.5.5s-.22.5-.5.5Z"></path>
    <path d="m108.95,155.79c-.28,0-.5-.22-.5-.5v-3.97c0-.28.22-.5.5-.5h2.74c.28,0,.5.22.5.5s-.22.5-.5.5h-2.24v3.47c0,.28-.22.5-.5.5Z"></path>
    <path d="m109.78,155.72c-.07,0-.15-.02-.22-.05-.25-.12-.35-.42-.23-.67l2.33-4.73c.12-.25.42-.35.67-.23.25.12.35.42.23.67l-2.33,4.73c-.09.18-.26.28-.45.28Z"></path>
    <path d="m109.71,155.72h-.75c-.28,0-.5-.22-.5-.5s.22-.5.5-.5h.75c.28,0,.5.22.5.5s-.22.5-.5.5Z"></path>
    <path d="m106.08,144c-.28,0-.5-.22-.5-.5v-24.39c0-.28.22-.5.5-.5s.5.22.5.5v24.39c0,.28-.22.5-.5.5Z"></path>
    <path d="m107.99,119.61c-.16,0-.31-.07-.41-.21l-1.92-2.74c-.16-.23-.1-.54.12-.7.23-.16.54-.1.7.12l1.92,2.74c.16.23.1.54-.12.7-.09.06-.19.09-.29.09Z"></path>
    <path d="m89.7,144c-.28,0-.5-.22-.5-.5v-27.13c0-.28.22-.5.5-.5s.5.22.5.5v27.13c0,.28-.22.5-.5.5Z"></path>
    <path d="m99.7,145.79c-.28,0-.5-.22-.5-.5v-1.28h-3.82c-.28,0-.5-.22-.5-.5s.22-.5.5-.5h4.32c.28,0,.5.22.5.5v1.78c0,.28-.22.5-.5.5Z"></path>
    <path d="m105.7,151.75c-3.58,0-6.5-2.91-6.5-6.5,0-.28.22-.5.5-.5s.5.22.5.5c0,3.03,2.47,5.5,5.5,5.5.28,0,.5.22.5.5s-.22.5-.5.5Z"></path>
    <path d="m105.96,155.72h0c-3.15,0-6.16-1.35-8.27-3.69-2.11-2.34-3.13-5.48-2.81-8.61.03-.28.28-.48.55-.45.27.03.47.27.45.55-.29,2.85.64,5.71,2.56,7.84,1.92,2.13,4.67,3.35,7.53,3.36.28,0,.5.22.5.5,0,.28-.22.5-.5.5Z"></path>
    <path d="m130.5,165.79c-7.17,0-13.73-4.45-16.37-11.13-.1-.26.02-.55.28-.65.26-.1.55.02.65.28,2.51,6.35,8.74,10.59,15.61,10.5,6.83-.07,13.01-4.42,15.39-10.83.1-.26.38-.39.64-.29.26.1.39.38.29.64-2.52,6.79-9.07,11.4-16.31,11.48-.06,0-.12,0-.18,0Z"></path>
    <path d="m108.88,158.6c-.06,0-.13-.01-.19-.04l-2.47-1.03c-.25-.11-.38-.4-.27-.65s.4-.37.65-.27l2.47,1.03c.25.11.38.4.27.65-.08.19-.27.31-.46.31Z"></path>
    <path d="m109.12,170.7c-.23,0-.44-.17-.49-.4-.46-2.37-2.39-4.14-4.79-4.4-.27-.03-.47-.28-.44-.55.03-.27.27-.47.55-.44,2.83.31,5.11,2.41,5.66,5.21.05.27-.12.53-.39.59-.03,0-.06,0-.1,0Z"></path>
    <path d="m109.13,158.53c-.12,0-.25-.01-.37-.04-.27-.05-.45-.31-.4-.58.05-.27.31-.45.58-.4.49.09.97-.2,1.11-.67.15-.48-.09-.98-.55-1.18-.25-.11-.37-.4-.27-.66.11-.25.4-.37.66-.26.93.39,1.41,1.42,1.12,2.39-.26.85-1.03,1.4-1.89,1.4Z"></path>
    <path d="m103.95,165.93s-.09,0-.14-.02c-.26-.08-.42-.36-.34-.62l2.47-8.36c.08-.26.36-.41.62-.34.26.08.42.36.34.62l-2.47,8.36c-.06.22-.26.36-.48.36Z"></path>
    <path d="m167.19,32.67c-.28,0-.5-.22-.5-.5v-4.45c0-.28.22-.5.5-.5s.5.22.5.5v4.45c0,.28-.22.5-.5.5Z"></path>
    <path d="m167.19,101.04c-.28,0-.5-.22-.5-.5V35.18c0-.28.22-.5.5-.5s.5.22.5.5v65.36c0,.28-.22.5-.5.5Z"></path>
    <path d="m167.19,169.42c-.28,0-.5-.22-.5-.5v-65.36c0-.28.22-.5.5-.5s.5.22.5.5v65.36c0,.28-.22.5-.5.5Z"></path>
    <path d="m165.34,32.67c-.28,0-.5-.22-.5-.5v-4.18c0-.28.22-.5.5-.5s.5.22.5.5v4.18c0,.28-.22.5-.5.5Z"></path>
    <path d="m165.34,101.04c-.28,0-.5-.22-.5-.5V35.18c0-.28.22-.5.5-.5s.5.22.5.5v65.36c0,.28-.22.5-.5.5Z"></path>
    <path d="m165.34,169.42c-.28,0-.5-.22-.5-.5v-65.36c0-.28.22-.5.5-.5s.5.22.5.5v65.36c0,.28-.22.5-.5.5Z"></path>
    <path d="m165.34,177.71c-.28,0-.5-.22-.5-.5v-5.34c0-.28.22-.5.5-.5s.5.22.5.5v5.34c0,.28-.22.5-.5.5Z"></path>
    <path d="m165.34,30.41h-11.31c-.28,0-.5-.22-.5-.5s.22-.5.5-.5h11.31c.28,0,.5.22.5.5s-.22.5-.5.5Z"></path>
    <path d="m218.03,30.41h-50.84c-.28,0-.5-.22-.5-.5s.22-.5.5-.5h50.84c.28,0,.5.22.5.5s-.22.5-.5.5Z"></path>
    <path d="m165.34,37.94h-11.31c-.28,0-.5-.22-.5-.5s.22-.5.5-.5h11.31c.28,0,.5.22.5.5s-.22.5-.5.5Z"></path>
    <path d="m218.03,37.94h-50.84c-.28,0-.5-.22-.5-.5s.22-.5.5-.5h50.84c.28,0,.5.22.5.5s-.22.5-.5.5Z"></path>
    <path d="m218.03,174.63c-.28,0-.5-.22-.5-.5V29.91c0-.28.22-.5.5-.5s.5.22.5.5v144.22c0,.28-.22.5-.5.5Z"></path>
    <path d="m210.49,101.73c-.28,0-.5-.22-.5-.5v-63.79c0-.28.22-.5.5-.5s.5.22.5.5v63.79c0,.28-.22.5-.5.5Z"></path>
    <path d="m210.49,167.16c-.28,0-.5-.22-.5-.5v-64.68c0-.28.22-.5.5-.5s.5.22.5.5v64.68c0,.28-.22.5-.5.5Z"></path>
    <path d="m202.96,83.44c-.28,0-.5-.22-.5-.5v-45.49c0-.28.22-.5.5-.5s.5.22.5.5v45.49c0,.28-.22.5-.5.5Z"></path>
    <path d="m202.96,98.78c-.28,0-.5-.22-.5-.5v-3.36c0-.28.22-.5.5-.5s.5.22.5.5v3.36c0,.28-.22.5-.5.5Z"></path>
    <path d="m202.96,151.75c-.28,0-.5-.22-.5-.5v-45.43c0-.28.22-.5.5-.5s.5.22.5.5v45.43c0,.28-.22.5-.5.5Z"></path>
    <path d="m202.96,167.16c-.28,0-.5-.22-.5-.5v-3.36c0-.28.22-.5.5-.5s.5.22.5.5v3.36c0,.28-.22.5-.5.5Z"></path>
    <path d="m195.42,74.05c-.28,0-.5-.22-.5-.5v-36.11c0-.28.22-.5.5-.5s.5.22.5.5v36.11c0,.28-.22.5-.5.5Z"></path>
    <path d="m187.88,64.73c-.28,0-.5-.22-.5-.5v-26.79c0-.28.22-.5.5-.5s.5.22.5.5v26.79c0,.28-.22.5-.5.5Z"></path>
    <path d="m180.35,55.35c-.28,0-.5-.22-.5-.5v-17.4c0-.28.22-.5.5-.5s.5.22.5.5v17.4c0,.28-.22.5-.5.5Z"></path>
    <path d="m172.88,45.96c-.28,0-.5-.22-.5-.5v-8.02c0-.28.22-.5.5-.5s.5.22.5.5v8.02c0,.28-.22.5-.5.5Z"></path>
    <path d="m195.42,98.78c-.28,0-.5-.22-.5-.5v-12.74c0-.28.22-.5.5-.5s.5.22.5.5v12.74c0,.28-.22.5-.5.5Z"></path>
    <path d="m187.88,98.78c-.28,0-.5-.22-.5-.5v-22.06c0-.28.22-.5.5-.5s.5.22.5.5v22.06c0,.28-.22.5-.5.5Z"></path>
    <path d="m180.35,98.78c-.28,0-.5-.22-.5-.5v-31.45c0-.28.22-.5.5-.5s.5.22.5.5v31.45c0,.28-.22.5-.5.5Z"></path>
    <path d="m172.88,98.78c-.28,0-.5-.22-.5-.5v-40.77c0-.28.22-.5.5-.5s.5.22.5.5v40.77c0,.28-.22.5-.5.5Z"></path>
    <path d="m195.42,142.43c-.28,0-.5-.22-.5-.5v-36.11c0-.28.22-.5.5-.5s.5.22.5.5v36.11c0,.28-.22.5-.5.5Z"></path>
    <path d="m187.88,133.04c-.28,0-.5-.22-.5-.5v-26.72c0-.28.22-.5.5-.5s.5.22.5.5v26.72c0,.28-.22.5-.5.5Z"></path>
    <path d="m180.35,123.72c-.28,0-.5-.22-.5-.5v-17.4c0-.28.22-.5.5-.5s.5.22.5.5v17.4c0,.28-.22.5-.5.5Z"></path>
    <path d="m172.88,114.34c-.28,0-.5-.22-.5-.5v-8.02c0-.28.22-.5.5-.5s.5.22.5.5v8.02c0,.28-.22.5-.5.5Z"></path>
    <path d="m195.42,167.16c-.28,0-.5-.22-.5-.5v-12.74c0-.28.22-.5.5-.5s.5.22.5.5v12.74c0,.28-.22.5-.5.5Z"></path>
    <path d="m187.88,167.16c-.28,0-.5-.22-.5-.5v-22.06c0-.28.22-.5.5-.5s.5.22.5.5v22.06c0,.28-.22.5-.5.5Z"></path>
    <path d="m180.35,167.16c-.28,0-.5-.22-.5-.5v-31.45c0-.28.22-.5.5-.5s.5.22.5.5v31.45c0,.28-.22.5-.5.5Z"></path>
    <path d="m172.88,167.16c-.28,0-.5-.22-.5-.5v-40.83c0-.28.22-.5.5-.5s.5.22.5.5v40.83c0,.28-.22.5-.5.5Z"></path>
    <path d="m218.03,174.63h-50.84c-.28,0-.5-.22-.5-.5s.22-.5.5-.5h50.84c.28,0,.5.22.5.5s-.22.5-.5.5Z"></path>
    <path d="m165.34,174.63h-11.31c-.28,0-.5-.22-.5-.5s.22-.5.5-.5h11.31c.28,0,.5.22.5.5s-.22.5-.5.5Z"></path>
    <path d="m218.03,167.16h-50.84c-.28,0-.5-.22-.5-.5s.22-.5.5-.5h50.84c.28,0,.5.22.5.5s-.22.5-.5.5Z"></path>
    <path d="m165.34,167.16h-11.31c-.28,0-.5-.22-.5-.5s.22-.5.5-.5h11.31c.28,0,.5.22.5.5s-.22.5-.5.5Z"></path>
    <path d="m154.04,174.63c-.28,0-.5-.22-.5-.5V29.91c0-.28.22-.5.5-.5s.5.22.5.5v144.22c0,.28-.22.5-.5.5Z"></path>
    <path d="m161.57,167.16c-.28,0-.5-.22-.5-.5V37.44c0-.28.22-.5.5-.5s.5.22.5.5v129.22c0,.28-.22.5-.5.5Z"></path>
    <path d="m165.34,106.32h-3.77c-.28,0-.5-.22-.5-.5s.22-.5.5-.5h3.77c.28,0,.5.22.5.5s-.22.5-.5.5Z"></path>
    <path d="m206.38,106.32h-39.19c-.28,0-.5-.22-.5-.5s.22-.5.5-.5h39.19c.28,0,.5.22.5.5s-.22.5-.5.5Z"></path>
    <path d="m210.49,106.32h-.62c-.28,0-.5-.22-.5-.5s.22-.5.5-.5h.62c.28,0,.5.22.5.5s-.22.5-.5.5Z"></path>
    <path d="m165.34,98.78h-3.77c-.28,0-.5-.22-.5-.5s.22-.5.5-.5h3.77c.28,0,.5.22.5.5s-.22.5-.5.5Z"></path>
    <path d="m210.49,98.78h-43.3c-.28,0-.5-.22-.5-.5s.22-.5.5-.5h43.3c.28,0,.5.22.5.5s-.22.5-.5.5Z"></path>
    <path d="m165.34,48.63c-.15,0-.29-.06-.39-.19l-3.77-4.66c-.17-.21-.14-.53.07-.7.22-.17.53-.14.7.07l3.77,4.66c.17.21.14.53-.07.7-.09.07-.2.11-.31.11Z"></path>
    <path d="m205.63,98.78c-.15,0-.29-.06-.39-.19l-38.44-47.82c-.17-.21-.14-.53.08-.7.21-.17.53-.14.7.08l38.44,47.82c.17.21.14.53-.08.7-.09.07-.2.11-.31.11Z"></path>
    <path d="m210.49,92.75c-.15,0-.29-.06-.39-.19l-43.3-53.78c-.17-.21-.14-.53.08-.7.21-.17.53-.14.7.08l43.3,53.78c.17.21.14.53-.08.7-.09.07-.2.11-.31.11Z"></path>
    <path d="m165.34,117.01c-.15,0-.29-.06-.39-.19l-3.77-4.73c-.17-.22-.14-.53.08-.7.22-.17.53-.14.7.08l3.77,4.73c.17.22.14.53-.08.7-.09.07-.2.11-.31.11Z"></path>
    <path d="m205.63,167.16c-.15,0-.29-.06-.39-.19l-38.44-47.82c-.17-.22-.14-.53.08-.7s.53-.14.7.08l38.44,47.82c.17.22.14.53-.08.7-.09.07-.2.11-.31.11Z"></path>
    <path d="m210.49,161.13c-.15,0-.29-.06-.39-.19l-43.3-53.78c-.17-.21-.14-.53.08-.7.21-.17.53-.14.7.08l43.3,53.78c.17.21.14.53-.08.7-.09.07-.2.11-.31.11Z"></path>
    <path d="m169.11,104.06h-5.69c-.28,0-.5-.22-.5-.5s.22-.5.5-.5h5.69c.28,0,.5.22.5.5s-.22.5-.5.5Z"></path>
    <path d="m169.11,104.06c-.28,0-.5-.22-.5-.5v-2.51h-4.69v2.51c0,.28-.22.5-.5.5s-.5-.22-.5-.5v-3.02c0-.28.22-.5.5-.5h5.69c.28,0,.5.22.5.5v3.02c0,.28-.22.5-.5.5Z"></path>
    <path d="m169.11,35.68h-5.69c-.28,0-.5-.22-.5-.5s.22-.5.5-.5h5.69c.28,0,.5.22.5.5s-.22.5-.5.5Z"></path>
    <path d="m169.11,35.68c-.28,0-.5-.22-.5-.5v-2.51h-4.69v2.51c0,.28-.22.5-.5.5s-.5-.22-.5-.5v-3.01c0-.28.22-.5.5-.5h5.69c.28,0,.5.22.5.5v3.01c0,.28-.22.5-.5.5Z"></path>
    <path d="m169.11,172.37h-5.69c-.28,0-.5-.22-.5-.5s.22-.5.5-.5h5.69c.28,0,.5.22.5.5s-.22.5-.5.5Z"></path>
    <path d="m169.11,172.37c-.28,0-.5-.22-.5-.5v-2.45h-4.69v2.45c0,.28-.22.5-.5.5s-.5-.22-.5-.5v-2.95c0-.28.22-.5.5-.5h5.69c.28,0,.5.22.5.5v2.95c0,.28-.22.5-.5.5Z"></path>
    <rect x="200.88" y="100.73" width="17.1" height="1.75" rx=".5" ry=".5"></rect>
    <path d="m206.38,106.46c-.28,0-.5-.22-.5-.5v-3.97c0-.28.22-.5.5-.5s.5.22.5.5v3.97c0,.28-.22.5-.5.5Z"></path>
    <path d="m209.88,106.46c-.28,0-.5-.22-.5-.5v-3.97c0-.28.22-.5.5-.5s.5.22.5.5v3.97c0,.28-.22.5-.5.5Z"></path>
    <path d="m208.13,108.17c-.41,0-.82-.11-1.19-.34-.72-.45-1.13-1.28-1.05-2.13.03-.27.28-.46.55-.45.27.03.48.27.45.55-.05.47.18.93.58,1.18.41.25.91.25,1.32,0,.4-.25.63-.71.58-1.18-.03-.28.17-.52.45-.55.27-.01.52.17.55.45.08.86-.32,1.67-1.05,2.13-.37.23-.78.34-1.19.34Z"></path>
    <path d="m179.67,183.74h-97.69c-.13,0-.26-.05-.35-.15-.09-.09-.15-.22-.15-.35l.73-153.2c0-.25.19-.46.43-.49l99.23-13.51c.14-.02.29.02.4.12.11.09.17.23.17.38v8.09c0,.25-.18.46-.43.49l-89.94,13.17-3.36,3.24-.14,130.08,4.24,4.63,86.87.07c.28,0,.5.22.5.5v6.44c0,.28-.22.5-.5.5Zm-97.19-1h96.69v-5.44l-86.59-.07c-.14,0-.27-.06-.37-.16l-4.52-4.93c-.08-.09-.13-.21-.13-.34l.14-130.49c0-.14.06-.27.15-.36l3.63-3.49c.08-.07.17-.12.27-.13l89.67-13.13v-7.09l-98.23,13.37-.72,152.26Z"></path>
  </g>
</svg>
