<?xml version="1.0" encoding="UTF-8"?>
<svg xmlns="http://www.w3.org/2000/svg" xmlns:xlink="http://www.w3.org/1999/xlink" width="300px" height="200px" viewBox="0 0 300 200" version="1.1">
  <!-- Generator: Sketch 54.1 (76490) - https://sketchapp.com -->
  <title>Artboard Copy 2</title>
  <desc>Created with Sketch.</desc>
  <defs>
    <polygon id="path-1" points="0.242386667 0.912786885 105.63536 0.912786885 105.63536 87 0.242386667 87"></polygon>
    <polygon id="path-3" points="0.982033333 0.29293985 118.6345 0.29293985 118.6345 36.9410226 0.982033333 36.9410226"></polygon>
    <polygon id="path-5" points="0 0.457476923 115.742395 0.457476923 115.742395 35.6156308 0 35.6156308"></polygon>
  </defs>
  <g id="Artboard-Copy-2" stroke="none" stroke-width="1" fill="none" fill-rule="evenodd">
    <rect fill="#FFFFFF" x="0" y="0" width="300" height="200"></rect>
    <rect id="Rectangle" fill="#FFFFFF" x="0" y="0" width="300" height="200"></rect>
    <g id="icon3-copy" transform="translate(50.000000, 79.000000)">
      <path d="M1,35.5373827 L1,84.4966719 L94.8320305,93 L199,48.6163586 L199,8.82545432 L186.769351,7.52239869 L128.871666,26.9827869 C128.871666,26.9827869 117.568547,19.8864741 115.416112,2.11792205 L104.870594,1 L1,35.5373827 Z" id="Fill-1" fill="#FFFFFF"></path>
      <path d="M151.029647,35 C131.824073,35 115.558288,20.5537366 114,2.11272182 L115.434252,2 C116.934086,19.7261935 132.569713,33.6115971 151.029647,33.6115971 C167.299709,33.6115971 181.518192,23.01987 185.604242,7.85328668 L187,8.20382404 C182.747144,23.9807548 167.95553,35 151.029647,35" id="Fill-3" fill="#231F20"></path>
      <polygon id="Fill-5" fill="#FFFFFF" points="199 9 199 48.7083933 95 93 95 43.6832017"></polygon>
      <g id="Group-9" transform="translate(94.000000, 6.000000)">
        <mask id="mask-2" fill="white">
          <use xlink:href="#path-1"></use>
        </mask>
        <g id="Clip-8"></g>
        <path d="M1.66985333,37.2388525 L1.66985333,85.4254426 L104.207187,41.2850656 L104.207187,2.91093443 L1.66985333,37.2388525 Z M1.66985333,87 L0.242386667,86.8716393 L0.242386667,36.1991311 L105.636067,0.912786885 L105.636067,42.2392131 L105.20076,42.424623 L1.66985333,87 Z" id="Fill-7" fill="#231F20" mask="url(#mask-2)"></path>
      </g>
      <path d="M1.4282312,84.0457501 L93.5717688,92.4050084 L93.5717688,43.7346497 L83.019827,42.8027932 C78.6064512,59.0647725 64.0865721,70.3698531 47.499293,70.3698531 C28.6522975,70.3698531 12.6603504,55.5078257 10.8248612,36.4213821 L1.4282312,35.5906574 L1.4282312,84.0457501 Z M95,94 L0,85.3821334 L0,34 L12.1456215,35.0734409 L12.1951147,35.6874549 C13.6827377,54.3173609 29.1896518,68.910667 47.499293,68.910667 C63.6383055,68.910667 77.7396139,57.778955 81.7938108,41.8391524 L81.9451184,41.2424753 L95,42.3968216 L95,94 Z" id="Fill-10" fill="#231F20"></path>
      <polygon id="Fill-12" fill="#FFFFFF" points="84 43.0006319 187.129519 9 198 9.92334426 95.7445674 44"></polygon>
      <g id="Group-16" transform="translate(81.000000, 8.000000)">
        <mask id="mask-4" fill="white">
          <use xlink:href="#path-3"></use>
        </mask>
        <g id="Clip-15"></g>
        <path d="M4.4047,34.7321504 L13.62295,35.5152707 L115.93745,2.23196241 L105.7587,1.41545865 L4.4047,34.7321504 Z M13.79295,36.9410226 L0.982033333,35.805985 L1.3447,34.4720376 L105.602867,0.29293985 L118.634783,1.30835338 L13.79295,36.9410226 Z" id="Fill-14" fill="#231F20" mask="url(#mask-4)"></path>
      </g>
      <polygon id="Fill-17" fill="#FFFFFF" points="2 34.4271244 105.39941 1 114 2.19724254 12.3201384 36"></polygon>
      <g id="Group-21">
        <mask id="mask-6" fill="white">
          <use xlink:href="#path-5"></use>
        </mask>
        <g id="Clip-20"></g>
        <path d="M3.73873659,34.1700923 L10.5784927,34.7502462 L112.498639,2.40701538 L105.049176,1.50009231 L3.73873659,34.1700923 Z M12.2095659,35.6156308 L-0.000141463415,33.8807077 L104.863859,0.457476923 L115.650444,1.78947692 L115.742395,2.7324 L12.2095659,35.6156308 Z" id="Fill-19" fill="#231F20" mask="url(#mask-6)"></path>
      </g>
    </g>
  </g>
</svg>
