<?xml version="1.0" encoding="UTF-8"?>
<svg xmlns="http://www.w3.org/2000/svg" xmlns:xlink="http://www.w3.org/1999/xlink" width="300px" height="200px" viewBox="0 0 300 200" version="1.1">
  <!-- Generator: Sketch 54.1 (76490) - https://sketchapp.com -->
  <title>Artboard Copy</title>
  <desc>Created with Sketch.</desc>
  <g id="Artboard-Copy" stroke="none" stroke-width="1" fill="none" fill-rule="evenodd">
    <rect fill="#FFFFFF" x="0" y="0" width="300" height="200"></rect>
    <rect id="Rectangle" fill="#FFFFFF" x="0" y="0" width="300" height="200"></rect>
    <g id="icon2" transform="translate(86.000000, 28.000000)">
      <polygon id="Fill-1" fill="#FFFFFF" points="56 5 75 5 65.6866322 1"></polygon>
      <polygon id="Fill-2" fill="#231F20" points="65.1928021 0 55 4.65712967 55.6540988 6 65.1799486 1.64743886 74.3244787 5.99446239 75 4.66266728"></polygon>
      <polygon id="Fill-3" fill="#FFFFFF" points="63.4750403 19 63.5587762 106.697139 61 113.155787 61 144 71 144 71 113.155787 68.4412238 106.697139 68.5249597 19"></polygon>
      <path d="M62.3202417,19 L62.3987915,106.941784 L60.0483384,113.240021 L60,145 L71,145 L71,113.510282 L68.5981873,106.941784 L68.6797583,19 L62.3202417,19 Z M61.6193353,113.646881 L64.0196375,107.217919 L63.9410876,20.5760282 L67.0574018,20.5760282 L66.9803625,107.078383 L69.3806647,113.646881 L69.3806647,143.423972 L61.6193353,143.423972 L61.6193353,113.646881 Z" id="Fill-4" fill="#231F20"></path>
      <polygon id="Fill-5" fill="#FFFFFF" points="60.324937 20 69.675063 20 73 5 57 5"></polygon>
      <path d="M61.7304094,18.4336073 L69.2695906,18.4336073 L72.059394,5.56639269 L58.940606,5.56639269 L61.7304094,18.4336073 Z M70.531714,20 L60.468286,20 L57,4 L74,4 L70.531714,20 Z" id="Fill-6" fill="#231F20"></path>
      <path d="M55,5.5 L76,5.5 L55,5.5 Z" id="Fill-7" fill="#FFFFFF"></path>
      <polygon id="Fill-8" fill="#231F20" points="55 6 76 6 76 5 55 5"></polygon>
      <polyline id="Fill-9" fill="#FFFFFF" points="85 25 93.66799 22 102 25"></polyline>
      <polygon id="Fill-10" fill="#231F20" points="85.5887359 27 85 26.1051213 94.1749687 23 103 26.1083558 102.394743 26.9967655 94.1614518 24.0975741"></polygon>
      <polygon id="Fill-11" fill="#FFFFFF" points="92.7315651 37 92.7908202 112.067058 91 117.595333 91 144 98 144 98 117.595333 96.2078631 112.067058 96.2684349 37"></polygon>
      <path d="M91.1094001,37 L91.1815849,112.377298 L89.044915,117.777151 L89,145 L99,145 L99,118.006619 L96.8184151,112.377298 L96.8905999,37 L91.1094001,37 Z M90.4725698,118.125766 L92.6541546,112.614121 L92.5835739,38.350331 L95.4180302,38.350331 L95.3442413,112.494974 L97.5274302,118.125766 L97.5274302,143.648198 L90.4725698,143.648198 L90.4725698,118.125766 Z" id="Fill-12" fill="#231F20"></path>
      <polygon id="Fill-13" fill="#FFFFFF" points="90.7018338 37 98.2996378 37 101 25 88 25"></polygon>
      <path d="M90.1741877,36.7266325 L96.8258123,36.7266325 L99.288207,26.2733675 L87.711793,26.2733675 L90.1741877,36.7266325 Z M97.9404332,38 L89.061071,38 L86,25 L101,25 L97.9404332,38 Z" id="Fill-14" fill="#231F20"></path>
      <path d="M85,26.5 L103,26.5 L85,26.5 Z" id="Fill-15" fill="#FFFFFF"></path>
      <polygon id="Fill-16" fill="#231F20" points="85 26.9585 103 26.9585 103 26.0415 85 26.0415"></polygon>
      <polygon id="Fill-17" fill="#FFFFFF" points="113 44 128 44 120.648987 41"></polygon>
      <polygon id="Fill-18" fill="#231F20" points="113 43.1055118 113.489909 44 120.635273 41.0973228 127.496929 43.9949606 128 43.1080315 120.64551 40"></polygon>
      <polygon id="Fill-19" fill="#FFFFFF" points="118.732689 53 118.791163 116.842978 117 121.545854 117 144 124 144 124 121.545854 122.208837 116.842978 122.267311 53"></polygon>
      <path d="M118.477413,53 L118.527273,117.208654 L117.03149,121.811508 L117,145 L124,145 L124,122.006222 L122.474039,117.208654 L122.522587,53 L118.477413,53 Z M118.031303,122.107239 L119.558575,117.410687 L119.508716,54.1507137 L121.492596,54.1507137 L121.441425,117.30967 L122.970009,122.107239 L122.970009,143.847822 L118.031303,143.847822 L118.031303,122.107239 Z" id="Fill-20" fill="#231F20"></path>
      <polygon id="Fill-21" fill="#FFFFFF" points="118.285544 53 124.714456 53 127 42 116 42"></polygon>
      <path d="M118.339192,53.8242334 L123.660808,53.8242334 L125.63058,44.1757666 L116.36942,44.1757666 L118.339192,53.8242334 Z M124.552197,55 L117.447803,55 L115,43 L127,43 L124.552197,55 Z" id="Fill-22" fill="#231F20"></path>
      <path d="M113,43.5 L129,43.5 L113,43.5 Z" id="Fill-23" fill="#FFFFFF"></path>
      <polygon id="Fill-24" fill="#231F20" points="113 43.8925 129 43.8925 129 43.1075 113 43.1075"></polygon>
      <polyline id="Fill-25" fill="#FFFFFF" points="27 25 35.66799 22 44 25"></polyline>
      <polygon id="Fill-26" fill="#231F20" points="26.5886868 27 26 26.1051213 35.1742032 23 44 26.1083558 43.3917904 26.9967655 35.1606875 24.0975741"></polygon>
      <polygon id="Fill-27" fill="#FFFFFF" points="32.7318909 37 32.7911571 112.067058 31 117.595333 31 144 38 144 38 117.595333 36.2088429 112.067058 36.2681091 37"></polygon>
      <path d="M32.1097385,37 L32.1819349,112.377298 L30.0449222,117.777151 L30,145 L40,145 L40,118.006619 L37.8180651,112.377298 L37.8902615,37 L32.1097385,37 Z M31.472806,118.125766 L33.6547409,112.614121 L33.5841489,38.350331 L36.4174555,38.350331 L36.3452591,112.494974 L38.527194,118.125766 L38.527194,143.648198 L31.472806,143.648198 L31.472806,118.125766 Z" id="Fill-28" fill="#231F20"></path>
      <polygon id="Fill-29" fill="#FFFFFF" points="30.7018338 37 38.2996378 37 41 25 28 25"></polygon>
      <path d="M32.1741877,36.7266325 L38.8258123,36.7266325 L41.288207,26.2733675 L29.711793,26.2733675 L32.1741877,36.7266325 Z M39.9404332,38 L31.061071,38 L28,25 L43,25 L39.9404332,38 Z" id="Fill-30" fill="#231F20"></path>
      <path d="M26,26.5 L44,26.5 L26,26.5 Z" id="Fill-31" fill="#FFFFFF"></path>
      <polygon id="Fill-32" fill="#231F20" points="26 26.9585 44 26.9585 44 26.0415 26 26.0415"></polygon>
      <polygon id="Fill-33" fill="#FFFFFF" points="1 44 16 44 8.64670296 41"></polygon>
      <polygon id="Fill-34" fill="#231F20" points="1 43.1055118 1.48990933 44 8.63527347 41.0973228 15.4954665 43.9949606 16 43.1080315 8.64404797 40"></polygon>
      <polygon id="Fill-35" fill="#FFFFFF" points="6.73384615 53 6.79230769 116.842978 5 121.545854 5 144 12 144 12 121.545854 10.2076923 116.842978 10.2676923 53"></polygon>
      <path d="M6.47665479,53 L6.52653291,117.208654 L5.0288768,121.811508 L5,145 L12,145 L12,122.006222 L10.4734671,117.208654 L10.5233452,53 L6.47665479,53 Z M6.0303769,122.107239 L7.55690981,117.410687 L7.50834427,54.1507137 L9.49165573,54.1507137 L9.44309019,117.30967 L10.9709357,122.107239 L10.9709357,143.847822 L6.0303769,143.847822 L6.0303769,122.107239 Z" id="Fill-36" fill="#231F20"></path>
      <polygon id="Fill-37" fill="#FFFFFF" points="4.28554424 53 10.7144558 53 13 42 2 42"></polygon>
      <path d="M5.33919156,53.8242334 L10.6608084,53.8242334 L12.63058,44.1757666 L3.36942004,44.1757666 L5.33919156,53.8242334 Z M11.5521968,55 L4.44780316,55 L2,43 L14,43 L11.5521968,55 Z" id="Fill-38" fill="#231F20"></path>
      <path d="M0,43.5 L16,43.5 L0,43.5 Z" id="Fill-39" fill="#FFFFFF"></path>
      <polygon id="Fill-40" fill="#231F20" points="0 43.8925 16 43.8925 16 43.1075 0 43.1075"></polygon>
    </g>
  </g>
</svg>
