<?xml version="1.0" encoding="UTF-8"?>
<svg xmlns="http://www.w3.org/2000/svg" xmlns:xlink="http://www.w3.org/1999/xlink" width="300px" height="200px" viewBox="0 0 300 200" version="1.1">
  <!-- Generator: Sketch 54.1 (76490) - https://sketchapp.com -->
  <title>Artboard Copy 6</title>
  <desc>Created with Sketch.</desc>
  <g id="Artboard-Copy-6" stroke="none" stroke-width="1" fill="none" fill-rule="evenodd">
    <rect fill="#FFFFFF" x="0" y="0" width="300" height="200"></rect>
    <g id="Group-3" transform="translate(89.000000, 43.000000)">
      <path d="M87.7767592,70.5783474 L15.6911437,83.9258193 C15.2641046,84.0040619 14.827602,84.0206588 14.3958312,83.9744246 L9.85454864,83.4800738 C7.86840291,83.2631284 6.26552771,81.7528097 5.9283916,79.7789629 L2.7297388,61.0457937 C2.70844599,60.9225024 1.15288814,51.8534767 1.1410588,51.7289999 C0.897374451,48.9905098 -8.75891357,10.3576458 32.7419504,4.34363701 L59.024372,0.112610508 C60.3752823,-0.105520306 61.7581318,-0.00593884702 63.0640907,0.404241923 L119.216772,18.0028937 C120.284961,18.3443159 120.251839,19.8712316 119.170637,20.1664195 L110.140121,22.6346171 C98.3675648,25.8520466 89.9852964,36.4100522 89.7522585,48.6372327 C89.6647214,53.271327 90.1083216,58.786243 91.3551337,65.3360949 C91.8200267,67.7734697 90.2112368,70.1278599 87.7767592,70.5783474" id="Fill-211" fill="#FFFFFF"></path>
      <path d="M87.7767592,70.5783474 L15.6911437,83.9258193 C15.2641046,84.0040619 14.827602,84.0206588 14.3958312,83.9744246 L9.85454864,83.4800738 C7.86840291,83.2631284 6.26552771,81.7528097 5.9283916,79.7789629 L2.7297388,61.0457937 C2.70844599,60.9225024 1.15288814,51.8534767 1.1410588,51.7289999 C0.897374451,48.9905098 -8.75891357,10.3576458 32.7419504,4.34363701 L59.024372,0.112610508 C60.3752823,-0.105520306 61.7581318,-0.00593884702 63.0640907,0.404241923 L119.216772,18.0028937 C120.284961,18.3443159 120.251839,19.8712316 119.170637,20.1664195 L110.140121,22.6346171 C98.3675648,25.8520466 89.9852964,36.4100522 89.7522585,48.6372327 C89.6647214,53.271327 90.1083216,58.786243 91.3551337,65.3360949 C91.8200267,67.7734697 90.2112368,70.1278599 87.7767592,70.5783474 Z" id="Stroke-212" stroke="#221F1F"></path>
      <polyline id="Fill-213" fill="#FFFFFF" points="97 65.1476549 90.7370361 64 5 77.9791546 14.2950809 79.1372322 14.2950809 84 97 69.1615518 97 65.1476549 14.2950809 79.1372322"></polyline>
      <path d="M9.87896532,78.0680972 L15.0073833,78.7437048 L93.1270431,64.7811474 L90.2448699,64.222356 L9.87896532,78.0680972 Z M15.6058353,79.8588789 L15.6058353,83.6861178 L95.8288609,68.4771185 L95.8288609,65.5205824 L15.6058353,79.8588789 Z M14.4346963,84.942194 L14.4346963,79.8817605 L5.16747289,78.661813 L5.08783543,78.141559 L5,77.6875411 L90.2554102,63 L96.419115,64.1922487 L97,64.3066564 L97,69.4790891 L15.1362086,85 L14.4346963,84.942194 Z" id="Fill-214" fill="#221F1F"></path>
      <polygon id="Fill-275" fill="#FFFFFF" points="54.0087719 120 123 89.0291013 85.6975634 82 2 104.407418"></polygon>
      <path d="M3.76499262,104.906452 L53.4806903,119.741287 L120.442264,89.8231868 L85.186253,83.2125762 L3.76499262,104.906452 Z M53.563122,121 L1,105.31577 L1,104.928929 L1,104.419055 L85.1415044,82 L123,89.1003731 L123,89.6481026 L123,89.975794 L53.563122,121 Z" id="Fill-277" fill="#221F1F"></path>
      <polygon id="Fill-279" fill="#FFFFFF" points="53 120.027796 53 128 122 95.0808183 122 89"></polygon>
      <path d="M53.1932773,120.830085 L53.1932773,127.431187 L121.806723,95.2823627 L121.806723,90.5285266 L53.1932773,120.830085 Z M52.2995126,128.894544 L52,128.802121 L52,120.059897 L122.330571,89 L122.658723,89.0592452 L123,89.124415 L123,96.033592 L52.6407899,129 L52.2995126,128.894544 Z" id="Fill-281" fill="#221F1F"></path>
      <polygon id="Fill-283" fill="#FFFFFF" points="1 104 1 111.331985 53 128 53 119.890416"></polygon>
      <path d="M2.17514024,111.434864 L52.8248598,127.542536 L52.8248598,120.786623 L2.17514024,105.429874 L2.17514024,111.434864 Z M53.7297177,128.870448 L53.4559101,129 L1,112.317739 L1,104.16434 L1.26323141,104.088767 L1.58874526,104 L54,119.891752 L54,128.737297 L53.7297177,128.870448 Z" id="Fill-285" fill="#221F1F"></path>
      <path d="M32.9235887,104 L22.4845852,101.286575 L20.3345309,82.9583097 L25.8393616,81.9221035 L25.8393616,76.8680989 L18.5937363,75.544907 C18.5937363,75.544907 6.48887305,21 49,21 C49,21 33.0008293,24.3450289 33.0008293,62.5 C33.0008293,94.2166138 32.9235887,104 32.9235887,104" id="Fill-287" fill="#FFFFFF"></path>
      <path d="M22.6102975,101.03033 L32.0380137,103.476851 C32.0543004,100.623762 32.1101408,89.2813415 32.1101408,62.4158416 C32.1101408,33.5329103 41.0783372,24.2008088 45.8445456,21.2801562 C36.6739279,21.8787477 29.5949974,25.2877562 24.7717852,31.4384326 C13.3570825,45.9978385 17.9592598,71.6175568 18.6421411,75.0490866 L26.0468071,76.3991772 L26.0468071,82.4822898 L20.5523471,83.514712 L22.6102975,101.03033 Z M33.1897213,105 L21.5504938,101.978594 L19.2680186,82.5510389 L24.883466,81.4960954 L24.883466,77.3912983 L17.6719146,76.0767675 L17.5869907,75.6927207 C17.5230069,75.4046855 11.3270523,46.6877005 23.8632159,30.6987868 C29.4298029,23.5998466 37.8326156,20 48.8366589,20 L50,20 L48.9553197,21.1722912 C48.799432,21.2066657 33.2734819,25.0056477 33.2734819,62.4158416 C33.2734819,94.0155487 33.1967014,104.145377 33.195538,104.24376 L33.1897213,105 Z" id="Fill-289" fill="#221F1F"></path>
      <path d="M33,50.5512839 L33,104 L39.4539261,102.125184 L39.4539261,52.7566036 C39.4539261,52.7566036 39.9645034,30.2623427 49,21 C49,21 34.8713517,25.5223756 33,50.5512839" id="Fill-291" fill="#FFFFFF"></path>
      <path d="M34.1438012,50.3885458 L34.1438012,103.432224 L39.4338819,101.879853 L39.4338819,52.5879351 C39.4533266,51.7074684 39.9691809,32.657154 47.2757832,22.4043971 C45.987863,23.2256131 44.3213446,24.5196504 42.6147932,26.4832216 C39.2748936,30.3274129 35.0943001,37.5951149 34.1438012,50.3885458 L34.1438012,50.3885458 Z M33,105 L33.0011438,50.3198149 C34.8746902,24.9936567 48.761581,20.2180429 49.3517824,20.0260703 L51,20 L49.9271144,21.0108185 C41.182754,30.0702645 40.5822584,52.3770023 40.5776832,52.6009703 L40.5776832,102.775725 L33,105 Z" id="Fill-293" fill="#221F1F"></path>
      <path d="M82.4300408,91 L72.9703238,88.7767676 L71.0209322,73.7610322 L76.0097882,72.9121617 L76.0097882,68.7712427 L69.4441124,67.6869711 C69.4441124,67.6869711 58.4748789,23 97,23 C97,23 82.4997477,25.7404014 82.4997477,57 C82.4997477,82.9844744 82.4300408,91 82.4300408,91" id="Fill-295" fill="#FFFFFF"></path>
      <path d="M72.8327168,87.7779976 L81.1502202,89.7641472 C81.1655705,87.447962 81.213983,78.2402058 81.213983,56.4317372 C81.213983,32.9861496 89.1276554,25.4095766 93.3336388,23.0399683 C85.2416668,23.5243372 78.9952736,26.2928374 74.7396969,31.28611 C64.6687163,43.1044717 68.7294623,63.9014642 69.3316665,66.6865849 L75.8649923,67.7835378 L75.8649923,72.7210131 L71.0178384,73.5591611 L72.8327168,87.7779976 Z M82.1680635,91 L71.897529,88.5472893 L69.8830967,72.7768104 L74.8377027,71.9208548 L74.8377027,68.5884448 L68.4755919,67.5211713 L68.4000211,67.2101306 C68.3433431,66.9762564 62.8774539,43.6636328 73.9379387,30.6853977 C78.8500361,24.9216462 86.2642332,22 95.9738912,22 L97,22 L96.0778009,22.9521171 C95.9396482,22.9794222 82.2412726,26.0637119 82.2412726,56.4317372 C82.2412726,82.0842897 82.1727866,90.3066878 82.1727866,90.3862287 L82.1680635,91 Z" id="Fill-297" fill="#221F1F"></path>
      <path d="M82,47.2106441 L82,91 L87.6471171,89.4639485 L87.6471171,49.0177635 C87.6471171,49.0177635 88.0940361,30.5887125 96,23 C96,23 83.6375485,26.7045947 82,47.2106441" id="Fill-299" fill="#FFFFFF"></path>
      <path d="M82.0163743,46.6687136 L82.0163743,89.7276949 L86.7192982,88.4672584 L86.7192982,48.4537386 C86.7356725,47.7392538 87.1953216,32.2745756 93.6888889,23.9523711 C92.5450292,24.618195 91.0631579,25.6697456 89.5461988,27.2636875 C86.5777778,30.3839207 82.8619883,36.2837608 82.0163743,46.6687136 L82.0163743,46.6687136 Z M81,91 L81.0011696,46.6129315 C82.6666667,26.0542856 95.0105263,22.1768409 95.5356725,22.0225502 L97,22 L96.045614,22.8213014 C88.2736842,30.1750348 87.7403509,48.2828319 87.7356725,48.4644202 L87.7356725,89.1936116 L81,91 Z" id="Fill-301" fill="#221F1F"></path>
    </g>
  </g>
</svg>
